<svg xmlns="http://www.w3.org/2000/svg" viewBox="0 0 454 382">
  <g transform="translate(0,382) scale(0.1,-0.1)" fill="#C4B08A" stroke="none"><path d="M598 3193 c-27 -2 -48 -6 -48 -8 0 -7 232 -368 428 -665 304 -463
718 -1092 861 -1310 70 -107 185 -282 254 -387 70 -106 127 -197 127 -203 0
-5 4 -10 8 -10 5 0 17 -16 28 -35 10 -20 24 -34 31 -33 7 2 94 131 192 287
l180 285 -8 10 c-8 11 -192 290 -346 526 -95 145 -272 414 -502 763 -79 120
-146 224 -149 231 l-5 13 23 7 c30 7 72 8 92 0 9 -3 49 -56 89 -118 102 -154
218 -332 253 -388 16 -26 104 -163 196 -305 92 -142 221 -341 286 -442 65
-101 122 -184 126 -185 8 -1 56 65 161 219 19 28 60 87 92 132 32 45 145 207
252 360 107 153 242 346 300 428 58 83 140 201 184 263 43 63 96 139 118 170
186 266 259 372 259 377 0 3 -246 5 -547 5 l-548 -1 -87 -122 c-264 -372 -461
-643 -474 -653 -7 -6 -11 -13 -9 -16 3 -3 -4 -13 -15 -23 -40 -36 -33 -51 109
-226 46 -57 113 -143 149 -191 l65 -88 22 0 22 0 134 188 c185 260 282 398
373 532 43 63 86 121 94 127 l16 13 -25 26 c-23 25 -78 59 -83 52 -4 -5 -265
-372 -344 -483 -39 -55 -97 -136 -129 -180 l-58 -80 -106 134 -107 134 16 26
c9 14 48 69 88 121 39 52 144 196 232 318 89 123 170 235 181 248 l19 24 385
-2 386 -3 -164 -235 c-90 -129 -202 -291 -250 -360 -234 -340 -274 -395 -285
-392 -6 1 -9 -2 -5 -8 6 -9 -36 -74 -229 -350 -44 -63 -102 -148 -130 -187
-27 -40 -52 -73 -55 -73 -6 0 -35 44 -220 330 -168 259 -201 310 -273 420 -41
63 -117 180 -168 260 -51 80 -118 183 -148 230 -30 47 -60 88 -66 92 -13 9
-237 9 -355 0 l-85 -7 15 -15 c8 -8 34 -44 57 -80 23 -36 46 -72 52 -80 6 -8
46 -69 89 -135 138 -213 435 -665 689 -1050 101 -154 187 -285 189 -292 8 -21
-205 -359 -218 -346 -7 8 -165 248 -486 738 -327 500 -482 736 -788 1200 -214
324 -225 342 -225 350 0 2 210 6 468 7 l467 3 0 60 0 60 -535 1 c-294 0 -556
-1 -582 -3z"/></g>
</svg>